<svg width="32" height="32" xmlns="http://www.w3.org/2000/svg">

 <g>
  <title>background</title>
  <rect fill="none" id="canvas_background" height="402" width="582" y="-1" x="-1"/>
 </g>
 <g>
  <title>Layer 1</title>
  <path fill="#000000" stroke="null" id="XMLID_223_" d="m30.301039,26.924741l-6.551467,-6.618804c1.353645,-2.061122 2.145974,-4.528989 2.145974,-7.181988c0,-7.1885 -5.788832,-13.036828 -12.904208,-13.036828s-12.904208,5.848328 -12.904208,13.036828s5.788821,13.036828 12.904208,13.036828c2.625996,0 5.068771,-0.800455 7.108919,-2.168024l6.551467,6.618793c0.767819,1.09775 3.518067,1.81389 4.524596,0.795711c1.007813,-1.01818 0.530382,-3.464347 -0.875281,-4.482516zm-26.342652,-13.800792c0,-5.032214 4.05192,-9.125775 9.032951,-9.125775s9.03294,4.093561 9.03294,9.125775s-4.05192,9.125786 -9.03294,9.125786s-9.032951,-4.093572 -9.032951,-9.125786z"/>
 </g>
</svg>