<svg width="512" height="512" xmlns="http://www.w3.org/2000/svg">

 <g>
  <title>background</title>
  <rect fill="none" id="canvas_background" height="402" width="582" y="-1" x="-1"/>
 </g>
 <g>
  <title>Layer 1</title>
  <g stroke="null" id="svg_6">
   <path stroke="null" id="svg_2" fill="#002f34" d="m431.662954,76.821623c-45.297156,-45.442537 -108.105922,-73.505249 -177.440097,-73.505249c-69.197161,0 -132.000697,28.062712 -177.440097,73.504203c-45.439399,45.439399 -73.508387,108.10383 -73.508387,177.440097c0,69.333129 28.067942,132.002789 73.508387,177.440097c45.439399,45.441491 108.242935,73.502112 177.440097,73.502112c69.334175,0 132.141894,-28.06062 177.440097,-73.502112c45.437308,-45.437308 73.508387,-108.106968 73.508387,-177.440097c0,-69.335221 -28.070033,-131.999651 -73.508387,-177.439051zm-13.752622,341.122341c-41.968036,41.828931 -99.767957,67.67223 -163.686429,67.67223c-63.778321,0 -121.72153,-25.843299 -163.543139,-67.67223c-41.828931,-41.958623 -67.811335,-99.763773 -67.811335,-163.682245c0,-63.91638 25.982404,-121.72153 67.811335,-163.545231c41.82161,-41.823701 99.764819,-67.811335 163.543139,-67.811335c63.919518,0 121.718392,25.987634 163.686429,67.811335c41.823701,41.823701 67.668046,99.628851 67.668046,163.545231c0,63.918472 -25.844345,121.723622 -67.668046,163.682245z"/>
   <path stroke="null" id="svg_3" fill="#002f34" d="m254.222858,173.115079c-44.743872,0 -81.146641,36.402769 -81.146641,81.146641c0,44.885069 36.402769,81.15187 81.146641,81.15187c44.880885,0 81.146641,-36.266801 81.146641,-81.15187c0.001046,-44.743872 -36.265755,-81.146641 -81.146641,-81.146641zm0,145.482429c-35.432168,0 -64.196683,-28.764515 -64.196683,-64.335789c0,-35.432168 28.763469,-64.335789 64.196683,-64.335789c35.571273,0 64.334743,28.903621 64.334743,64.335789c0.001046,35.571273 -28.762423,64.335789 -64.334743,64.335789z"/>
   <path stroke="null" id="svg_4" fill="#002f34" d="m320.642092,128.751917l-132.696225,0c-32.653195,0 -60.237928,26.434236 -60.237928,59.232812l0,132.700408c0,32.643782 27.584733,55.946574 60.237928,55.946574l132.696225,0c32.791254,0 60.175173,-23.302792 60.175173,-55.946574l0,-132.700408c0,-32.798576 -27.383919,-59.232812 -60.175173,-59.232812zm45.532485,191.93322c0,24.587165 -20.936952,41.303886 -45.532485,41.303886l-132.696225,0c-24.599716,0 -44.549333,-16.71672 -44.549333,-41.303886l0,-132.700408c0,-24.599716 19.949617,-44.590124 44.549333,-44.590124l132.696225,0c24.595533,0 45.532485,19.990407 45.532485,44.590124l0,132.700408z"/>
   <path stroke="null" id="svg_5" fill="#002f34" d="m333.841429,162.138293c-7.226167,0 -13.060232,5.834065 -13.060232,13.057094c0,7.228258 5.834065,13.06337 13.060232,13.06337c7.225121,0 13.064416,-5.835111 13.064416,-13.06337c0,-7.223029 -5.839295,-13.057094 -13.064416,-13.057094z"/>
  </g>
 </g>
</svg>