<svg width="515" height="515" xmlns="http://www.w3.org/2000/svg">
 <title/>

 <g>
  <title>background</title>
  <rect fill="none" id="canvas_background" height="402" width="582" y="-1" x="-1"/>
 </g>
 <g>
  <title>Layer 1</title>
  <path stroke="null" fill="#002f34" id="svg_1" d="m193.500957,262.360414l21.889428,0l0,132.40808c0,2.908386 2.449167,5.357552 5.357552,5.357552l57.249274,0c2.908386,0 5.357552,-2.449167 5.357552,-5.357552l0,-132.40808l33.216825,0c2.755313,0 5.051407,-2.143021 5.357552,-4.745261l5.051407,-48.67719c0.306146,-2.908386 -1.836875,-5.510625 -4.745261,-5.816771c-0.153073,0 -0.306146,0 -0.612292,0l-38.268231,0l0,-23.267085c0,-1.530729 0.153073,-3.061458 0.765365,-4.439115c0.612292,-1.377656 1.683802,-2.449167 3.214531,-2.908386c0.918438,-0.306146 1.836875,-0.459219 2.755313,-0.459219l30.767658,0c2.908386,0 5.357552,-2.449167 5.357552,-5.357552l0,-47.146461c0,-2.908386 -2.449167,-5.357552 -5.357552,-5.357552l-42.4012,-0.153073l0,0c-10.715105,-0.306146 -21.430209,1.989948 -31.226877,6.429063c-5.969844,2.755313 -11.327396,6.735209 -15.766511,11.480469c-5.969844,6.429063 -10.255886,14.235782 -12.858126,22.654793c-2.296094,7.3475 -3.367604,14.848074 -3.367604,22.50172l0,26.17547l-21.889428,0c-2.908386,0 -5.357552,2.449167 -5.357552,5.357552l0,48.67719c0.153073,2.60224 2.449167,5.051407 5.510625,5.051407l0,0z"/>
  <path stroke="null" fill="#002f34" id="svg_2" d="m253.365799,508.950007c139.357549,0.12097 252.343617,-112.623158 252.585557,-251.980706s-112.744128,-252.343617 -251.980706,-252.585557s-252.464587,112.744128 -252.585557,251.980706c-0.12097,67.017432 26.492451,131.252552 73.912728,178.672829c47.178337,47.420277 111.292487,73.912728 178.067979,73.912728zm0,-478.678663c125.325018,-0.12097 227.060867,101.493909 227.181837,226.818927c0.12097,125.325018 -101.493909,227.060867 -226.818927,227.181837c-125.325018,0 -227.060867,-101.493909 -227.181837,-226.818927c0,-60.243107 23.831109,-118.066812 66.533552,-160.769255c42.460503,-42.581473 100.163238,-66.533552 160.285375,-66.412582l0,0z"/>
 </g>
</svg>