<svg width="32" height="32" xmlns="http://www.w3.org/2000/svg">

 <title/>
 <g>
  <title>background</title>
  <rect fill="none" id="canvas_background" height="402" width="582" y="-1" x="-1"/>
 </g>
 <g>
  <title>Layer 1</title>
  <path stroke="null" fill="#002f34" id="svg_1" d="m15.955077,29.353968a3.15071,3.15071 0 0 1 -2.237004,-0.924208l-10.817437,-10.817437a9.158063,9.158063 0 0 1 -2.646596,-6.563979a8.464907,8.464907 0 0 1 8.548926,-8.401893a8.464907,8.464907 0 0 1 6.101875,2.510065l1.050237,1.050237l0.861194,-0.861194l0,0a8.811485,8.811485 0 0 1 11.552602,-0.934711a8.664452,8.664452 0 0 1 0.850692,12.980924l-11.027484,11.037986a3.15071,3.15071 0 0 1 -2.237004,0.924208zm-7.194121,-24.617545a6.427448,6.427448 0 0 0 -4.474008,1.806407a6.301419,6.301419 0 0 0 -1.932435,4.547524a7.05759,7.05759 0 0 0 2.047961,5.041136l10.817437,10.817437a1.050237,1.050237 0 0 0 1.491336,0l11.037986,-11.048489a6.563979,6.563979 0 0 0 1.858919,-5.041136a6.490462,6.490462 0 0 0 -2.552075,-4.778576a6.690007,6.690007 0 0 0 -8.79048,0.745668l-1.564853,1.606862a1.050237,1.050237 0 0 1 -1.491336,0l-1.785402,-1.785402a6.595486,6.595486 0 0 0 -4.621041,-1.911431l-0.042009,0z" class="cls-1"/>
 </g>
</svg>