<svg width="512" height="512" xmlns="http://www.w3.org/2000/svg">

 <g>
  <title>background</title>
  <rect fill="none" id="canvas_background" height="402" width="582" y="-1" x="-1"/>
 </g>
 <g>
  <title>Layer 1</title>
  <path stroke="#002f34" stroke-width="30" id="svg_3" fill="#ffffff" d="m19.548067,144.275642c0.952845,-45.355406 16.960635,-79.086108 47.261096,-105.956328c9.719016,-8.766171 21.724859,-12.57755 35.255253,-10.67186c5.717068,0.762276 11.434136,1.333983 17.151204,0.952845c10.67186,-0.571707 17.91348,4.573654 21.53429,13.911532c12.768119,33.158995 25.155099,66.317989 37.54208,99.667553c4.192517,11.434136 -3.049103,20.390876 -9.147309,28.58534c-7.051051,9.719016 -15.626653,18.294618 -24.011686,26.87022c-8.575602,8.766171 -9.719016,13.720963 -3.811379,24.392824c34.492977,62.69718 82.897487,110.91112 148.643769,140.639874c2.286827,0.952845 4.573654,2.286827 6.860482,3.430241c8.766171,4.001948 16.579497,3.049103 23.24941,-4.573654c12.196412,-14.29267 25.536237,-27.441927 36.779804,-42.496872c7.432188,-9.909585 12.57755,-11.624705 23.821117,-6.669913c33.540133,14.483239 64.984007,32.777857 96.999588,50.500768c5.907637,3.239672 8.003895,8.194464 7.813326,15.054946c-1.71512,56.217836 -33.92127,85.565452 -90.520244,98.524139c-27.441927,6.288775 -52.787595,-0.571707 -77.942694,-9.719016c-52.787595,-19.056893 -103.669501,-41.544028 -146.356942,-79.276677c-33.92127,-30.109892 -63.840593,-63.650024 -89.186262,-101.192104c-19.438031,-28.966478 -39.638338,-57.361249 -50.881906,-91.091951c-6.479344,-17.91348 -11.243567,-36.208098 -11.052998,-50.881906z"/>
 </g>
</svg>