<svg width="512" height="512" xmlns="http://www.w3.org/2000/svg">

 <g>
  <title>background</title>
  <rect fill="none" id="canvas_background" height="402" width="582" y="-1" x="-1"/>
 </g>
 <g>
  <title>Layer 1</title>
  <g stroke="null" id="svg_4">
   <path stroke="null" id="svg_2" fill-rule="evenodd" clip-rule="evenodd" fill="#002f34" d="m433.887168,76.827591c-45.864665,-45.720041 -109.112657,-74.186599 -179.094617,-74.186599c-69.986183,0 -133.235231,28.466558 -179.090395,74.186599c-45.869943,45.862554 -74.197156,109.250947 -74.197156,179.23713c0,69.837337 28.327213,133.235231 74.197156,179.090395c45.855164,45.721097 109.104212,74.186599 179.090395,74.186599c69.98196,0 133.229953,-28.466558 179.094617,-74.186599c45.860442,-45.855164 74.187655,-109.253058 74.187655,-179.090395c0,-69.986183 -28.326157,-133.373521 -74.187655,-179.23713zm-14.026372,344.307486c-42.218462,42.213184 -100.551366,68.43755 -165.068245,68.43755c-64.522158,0 -122.855061,-26.224365 -165.073523,-68.43755c-42.349363,-42.21424 -68.438605,-100.697045 -68.438605,-165.069301c0,-64.513712 26.089243,-122.997573 68.438605,-165.210757c42.218462,-42.218462 100.551366,-68.300316 165.073523,-68.300316c64.516879,0 122.849783,26.081853 165.068245,68.300316c42.353585,42.213184 68.438605,100.697045 68.438605,165.210757c0,64.372256 -26.08502,122.854005 -68.438605,165.069301z"/>
   <path stroke="null" id="svg_3" fill-rule="evenodd" clip-rule="evenodd" fill="#002f34" d="m377.087063,156.347315c-10.239769,6.028796 -21.738924,10.377003 -33.796516,12.760652c-9.551488,-10.23238 -23.42268,-16.547256 -38.853062,-16.547256c-29.17173,0 -53.01878,23.42268 -53.01878,52.168985c0,4.208862 0.709394,8.137977 1.548633,11.926692c-44.176686,-2.106014 -83.308439,-22.863188 -109.397682,-54.560023c-4.486497,7.854008 -7.288182,16.691879 -7.288182,26.227532c0,18.232067 10.429785,34.218775 24.451935,43.477849c-8.691136,-0.140401 -17.803475,-2.528273 -23.081706,-6.453166c0,0.281858 0,0.421203 0,0.700949c0,6.731856 0.369476,12.905276 2.746792,18.792615c6.4595,16.414244 20.739227,28.751583 38.551147,32.25844c-4.635343,1.263609 -9.345637,1.958224 -14.251225,1.958224c-3.366456,0 -6.844811,-0.419092 -10.0772,-1.120041c6.878591,20.76034 26.314095,35.905698 49.461252,36.46519c-18.237345,14.025317 -40.982301,22.297361 -65.807935,22.297361c-4.355597,0 -8.429336,-0.279746 -12.775432,-0.698838c23.556747,14.72521 51.460646,23.42268 81.336492,23.42268c82.887236,0 133.819003,-57.364876 147.135981,-116.968777c2.39315,-10.654638 3.253502,-21.174153 3.253502,-31.552212c0,-2.24536 0,-4.625842 0,-6.732912c10.556463,-7.432806 19.607574,-16.691879 26.622344,-27.068882c-9.401586,4.070572 -19.511511,6.875424 -30.311828,8.274156c11.081119,-6.588289 19.61602,-16.688712 23.551469,-29.029218z"/>
  </g>
 </g>
</svg>