<svg width="512" height="512" xmlns="http://www.w3.org/2000/svg">

 <g>
  <title>background</title>
  <rect fill="none" id="canvas_background" height="402" width="582" y="-1" x="-1"/>
 </g>
 <g>
  <title>Layer 1</title>
  <g stroke="null" id="svg_4">
   <path stroke="null" id="svg_2" fill-rule="evenodd" clip-rule="evenodd" fill="#002f34" d="m431.591627,76.200952c-45.64619,-45.507493 -108.600148,-73.841712 -178.262022,-73.841712c-69.660823,0 -132.615832,28.33422 -178.262022,73.841712c-45.641987,45.649342 -73.842763,108.743049 -73.842763,178.403872c0,69.512669 28.200776,132.615832 73.842763,178.257819c45.64619,45.508544 108.601199,73.841712 178.262022,73.841712c69.661874,0 132.615832,-28.33422 178.262022,-73.841712c45.641987,-45.641987 73.848017,-108.74515 73.848017,-178.257819c0,-69.660823 -28.204979,-132.753479 -73.848017,-178.403872zm-13.955911,342.70683c-42.022193,42.016939 -100.094419,68.119389 -164.306111,68.119389s-122.283918,-26.102451 -164.306111,-68.119389c-42.14723,-42.01799 -68.115186,-100.228913 -68.115186,-164.301908c0,-64.213794 25.967956,-122.425768 68.115186,-164.442707c42.022193,-42.022193 100.094419,-67.982793 164.306111,-67.982793s122.283918,25.960601 164.306111,67.982793c42.152484,42.016939 68.109933,100.228913 68.109933,164.442707c0,64.072995 -25.957449,122.282868 -68.109933,164.301908z"/>
   <path stroke="null" id="svg_3" fill-rule="evenodd" clip-rule="evenodd" fill="#002f34" d="m370.408605,174.197046c-9.764515,-10.607207 -20.797271,-11.340623 -25.680054,-12.041465c-36.015119,-2.649963 -90.035697,-3.239427 -90.035697,-3.239427l-0.287902,0c0,0 -53.875576,0.589464 -89.902253,3.239427c-5.155975,0.700843 -16.04478,1.140051 -25.814548,11.744106c-7.681951,8.100145 -9.451395,26.811699 -9.451395,26.811699s-1.786256,21.924714 -1.786256,43.421776l0,2.793914l0,17.727012c0,21.77761 1.785205,43.275724 1.785205,43.275724s2.207602,18.565502 9.889553,26.79909c9.769768,10.748006 22.401749,10.330863 28.259617,11.445697c20.524079,2.097274 87.416206,2.793914 87.416206,2.793914s53.965939,-0.279496 89.982109,-2.793914c4.881732,-0.69664 15.885068,-0.69664 25.649582,-11.445697c7.686154,-8.233588 9.563824,-26.79909 9.563824,-26.79909s1.732668,-21.499164 1.732668,-43.275724l0,-16.612179l0,-3.909799c0,-21.497063 -1.747378,-43.273622 -1.747378,-43.273622s-1.887127,-18.564451 -9.57328,-26.661444zm-141.036452,115.023314l0,-57.790628l0,-17.588315l30.806608,17.173273l38.479102,20.660675l-69.285709,37.544995z"/>
  </g>
 </g>
</svg>